<?xml version="1.0" encoding="utf-8"?>
<!-- Generator: Adobe Illustrator 22.1.0, SVG Export Plug-In . SVG Version: 6.00 Build 0)  -->
<svg version="1.1" id="Capa_1" xmlns="http://www.w3.org/2000/svg" xmlns:xlink="http://www.w3.org/1999/xlink" x="0px" y="0px"
	 viewBox="0 0 400 37" style="enable-background:new 0 0 400 37;" xml:space="preserve">
<style type="text/css">
	.st0{fill:#FFFFFF;}
</style>
<g>
	<path class="st0" d="M204.8,30.3c-0.2,1.5-0.6,3.2-1.8,3.5c-0.7,0.1-1,0.1-1.4,0.1c-0.4,0-0.7,0.1-0.7,0.3c0,0.4,0.4,0.5,0.8,0.5
		c1.4,0,3.6-0.1,4.5-0.1c0.8,0,2.8,0.1,4.7,0.1c0.7,0,1.1-0.1,1.1-0.5c0-0.2-0.3-0.3-0.7-0.3c-0.5,0-1.1,0-1.9-0.2
		c-0.8-0.2-1.3-0.6-1.3-1.4c0-0.7,0-1.3,0.1-2.1l2.4-17.5h0.2c1.6,3.3,4.3,8.9,4.7,9.8c0.5,1.2,4.1,8,5.2,10
		c0.7,1.3,1.2,2.2,1.6,2.2c0.4,0,0.6-0.4,1.7-2.5l9.8-20h0.2l2.7,19.4c0.2,1.2,0,1.8-0.2,1.9c-0.3,0.1-0.5,0.3-0.5,0.5
		c0,0.3,0.3,0.4,1.3,0.5c1.8,0.1,8,0.3,9.1,0.3c0.6,0,1.2-0.1,1.2-0.5c0-0.3-0.3-0.3-0.7-0.3c-0.6,0-1.5,0-2.8-0.4
		c-1.4-0.4-1.8-1.7-2.2-4.4l-4.1-27.2c-0.1-0.9-0.4-1.4-0.8-1.4c-0.4,0-0.6,0.3-1,1.1l-12.2,25.2L211.2,1.8
		c-0.6-1.2-0.9-1.4-1.2-1.4c-0.4,0-0.6,0.4-0.8,1.1L204.8,30.3z"/>
	<path class="st0" d="M260.8,23.2h-7.7c-0.1,0-0.2-0.1-0.1-0.3l3.8-9.5c0.1-0.1,0.1-0.4,0.2-0.4c0.1,0,0.1,0.2,0.2,0.4L261,23
		C261.1,23.1,261,23.2,260.8,23.2 M274.2,33.9c-0.5,0-0.9,0-1.5-0.1c-0.7-0.1-1.8-0.6-3.4-4c-2.5-5.7-9.1-21-10.1-23.1
		c-0.4-0.8-0.6-1.2-1.2-1.2c-0.4,0-0.7,0.4-1.2,1.5l-10.3,23.6c-0.8,1.9-1.5,3-3.3,3.3c-0.4,0-0.8,0-1.2,0c-0.3,0-0.4,0.2-0.4,0.4
		c0,0.3,0.2,0.4,0.7,0.4c2.1,0,4.2-0.1,4.6-0.1c1.3,0,3.1,0.1,4.4,0.1c0.4,0,0.6-0.1,0.6-0.4c0-0.2-0.1-0.4-0.6-0.4h-0.6
		c-1.2,0-1.6-0.4-1.6-1.1c0-0.4,0.2-1.4,0.6-2.3l2.1-5c0.1-0.2,0.1-0.3,0.4-0.3h9.3c0.2,0,0.3,0,0.4,0.3l3.1,7.5
		c0.2,0.4-0.1,0.8-0.4,0.8c-0.4,0-0.5,0.2-0.5,0.4c0,0.3,0.4,0.3,1.2,0.3c3.3,0.1,6.2,0.1,7.6,0.1c1.5,0,1.7-0.1,1.7-0.4
		C274.8,34,274.6,33.9,274.2,33.9"/>
	<path class="st0" d="M297,30.5c-2.4,1.9-5,2.6-8.6,2.6c-3.1,0-4.7-0.8-5.2-1.5c-0.3-0.4-0.4-1.7-0.4-2.6c-0.1-0.7-0.1-3.6-0.1-7.6
		v-4.7c0-3,0-6,0-7.3c0-0.4,0.1-0.6,0.5-0.7c0.3-0.2,1.6-0.3,2.4-0.3c3.1,0,7.4,0.4,11.1,3.6c1.8,1.5,3.7,4.6,3.7,9.4
		C300.3,25.1,299.5,28.4,297,30.5 M302.3,10.6c-4.3-4.3-11-4.3-15.9-4.3c-2.4,0-5.2,0.1-6.4,0.1c-1.1,0-3.6-0.1-5.7-0.1
		c-0.6,0-0.9,0.1-0.9,0.4c0,0.3,0.3,0.4,0.7,0.4c0.6,0,1.3,0.1,1.6,0.1c1.3,0.3,1.6,0.8,1.7,2c0,1.2,0,2.3,0,7.9v6.6
		c0,3.4,0,6.4-0.2,8c-0.1,1.1-0.4,1.8-1.2,2c-0.4,0.1-0.8,0.1-1.4,0.1c-0.5,0-0.6,0.2-0.6,0.4c0,0.3,0.3,0.4,0.8,0.4
		c0.8,0,1.8,0,2.7-0.1c0.9,0,1.8,0,2.2,0c1,0,2.4,0.1,4,0.2c1.6,0.1,3.3,0.2,4.7,0.2c7.3,0,11.5-2.7,13.3-4.4
		c2.2-2.2,4.3-5.7,4.3-10.5C306,15.7,304.3,12.6,302.3,10.6"/>
	<path class="st0" d="M309.1,23.8c0,3.4,0,6.4-0.2,8c-0.1,1.1-0.4,1.8-1.2,2c-0.4,0.1-0.8,0.1-1.4,0.1c-0.5,0-0.6,0.2-0.6,0.4
		c0,0.3,0.3,0.4,0.8,0.4c0.8,0,1.8,0,2.7-0.1c1,0,1.8,0,2.3,0c1.2,0,2.7,0,4.6,0.1c1.9,0.1,4.3,0.1,7.3,0.1c1.5,0,1.8,0,2.1-1
		c0.2-0.8,0.5-3.3,0.5-4.1c0-0.4,0-0.9-0.4-0.9c-0.3,0-0.4,0.2-0.5,0.6c-0.3,1.5-0.7,2.3-1.7,2.8c-1,0.5-2.7,0.5-3.7,0.5
		c-4.1,0-5.3-0.6-5.3-3.1c-0.1-1.1,0-4.3,0-5.6v-3c0-0.2,0-0.4,0.2-0.4c1,0,5.5,0.1,6.2,0.2c1.5,0.1,2,0.7,2.2,1.4
		c0.1,0.5,0.1,1,0.1,1.4c0,0.2,0.1,0.3,0.4,0.3c0.4,0,0.4-0.5,0.4-0.8c0-0.3,0.1-1.8,0.2-2.5c0.2-1.9,0.3-2.5,0.3-2.7
		c0-0.2-0.1-0.4-0.3-0.4c-0.2,0-0.3,0.2-0.6,0.5c-0.4,0.4-0.9,0.5-1.9,0.6c-0.9,0.1-6,0.1-6.9,0.1c-0.2,0-0.3-0.2-0.3-0.4V8.9
		c0-0.2,0.1-0.4,0.3-0.4c0.8,0,5.5,0.1,6.2,0.2c2,0.2,2.3,0.7,2.6,1.4c0.2,0.4,0.3,1.1,0.3,1.4c0,0.3,0.1,0.5,0.3,0.5
		c0.3,0,0.4-0.4,0.5-0.6c0.1-0.4,0.2-2.1,0.2-2.5c0.1-1.7,0.3-2.2,0.3-2.4c0-0.2,0-0.3-0.3-0.3c-0.2,0-0.4,0.1-0.6,0.2
		c-0.3,0-0.9,0.2-1.7,0.2c-0.8,0.1-9.5,0-10.8,0c-1.1,0-3.6-0.1-5.7-0.1c-0.6,0-0.9,0.1-0.9,0.3c0,0.3,0.3,0.4,0.7,0.4
		c0.6,0,1.3,0.1,1.6,0.1c1.3,0.4,1.6,0.8,1.7,2c0,1.2,0,2.3,0,7.9V23.8z"/>
	<path class="st0" d="M383,34.2c1.7,0.7,4.1,1,6.4,1c2.1,0,4.7-0.2,6.6-1.5c2.9-2,4-4.2,4-7c0-3.4-1.6-6.2-6.8-9.1l-1.6-0.9
		c-3.6-1.9-4.2-3.3-4.2-4.9c0-2.6,2.6-4,5.4-4c2.6,0,3.8,1.1,4.4,1.8c0.9,1,1,2.1,1,2.5c0,0.4,0.1,0.7,0.4,0.7
		c0.3,0,0.5-0.4,0.5-1.2c0-2.9,0.1-4,0.1-4.5c0-0.3-0.2-0.4-0.5-0.5c-1-0.3-3.1-0.6-5.6-0.6c-5.5,0-10,3-10,7.5
		c0,3.3,1.5,5.8,6.2,8.5l2.3,1.3c3.5,2,3.9,3.7,3.9,5.3c0,2.6-2.1,4.8-5.5,4.8c-2.5,0-5.5-0.9-6.3-3.7c-0.2-0.7-0.4-1.5-0.4-1.9
		c0-0.3,0-0.6-0.4-0.6c-0.3,0-0.5,0.4-0.5,1c0,0.6-0.2,3-0.2,5C382.2,33.8,382.4,33.9,383,34.2"/>
	<path class="st0" d="M341.7,20.6c-0.7,0.5-1.2,0.6-2.7,0.6c-1,0-2.1-0.1-2.9-0.4c-0.3-0.1-0.3-0.3-0.3-0.7V8.9
		c0-0.3,0.1-0.5,0.3-0.5c0.4-0.1,1.1-0.1,2-0.1c2.2,0,5.8,1.5,5.8,6.8C343.9,18.1,342.8,19.8,341.7,20.6 M368.4,30.1
		c0,0-10.4,7.9-16.8,0.8c-4.3-4.8-4.9-7-6.2-8.2c-1.2-1.1-2-1.2-2-1.2c3.8-3.1,5-5.6,5-8.3c0-2.5-1.5-4.4-2.6-5.1
		c-2.1-1.4-4.6-1.6-7-1.6c-1.2,0-4.1,0.1-5.4,0.1c-0.8,0-3.2-0.1-5.2-0.1c-0.6,0-0.8,0.1-0.8,0.3c0,0.3,0.2,0.3,0.6,0.3
		c0.5,0,1.2,0,1.5,0.1c1.3,0.3,1.6,0.9,1.6,2.1c0.1,1.2,0.1,2.2,0.1,7.9v6.6c0,3.4,0,6.4-0.2,7.9c-0.2,1.1-0.4,1.9-1.1,2.1
		c-0.3,0.1-0.8,0.1-1.4,0.1c-0.5,0-0.6,0.1-0.6,0.3c0,0.3,0.3,0.4,0.8,0.4c1.5,0,3.9-0.1,4.6-0.1c0.6,0,3.4,0.1,5.6,0.1
		c0.5,0,0.8-0.1,0.8-0.4c0-0.2-0.2-0.3-0.5-0.3c-0.4,0-1.3-0.1-1.9-0.1c-1.1-0.2-1.4-1-1.5-2.1c-0.2-1.6-0.2-4.5-0.2-8v-0.5
		c0-0.2,0.1-0.3,0.3-0.3l3.3,0.1c2,0.1,3.2,2.5,4.8,5.3c2.2,3.8,7.6,10.1,15.4,7.8c6-1.8,9.6-5.9,9.5-6.2
		C368.8,29.6,368.4,30.1,368.4,30.1"/>
	<path class="st0" d="M368.9,23h-7c-0.2,0-0.2-0.1-0.2-0.3l3.5-9.2c0-0.2,0.1-0.4,0.2-0.4c0.1,0,0.1,0.2,0.2,0.4l3.4,9.2
		C369.1,22.9,369.1,23,368.9,23 M381.7,33.9c-0.4,0-1,0-1.6-0.1c-0.8-0.2-1.9-0.7-3.3-4.1c-2.4-5.7-8.5-20.9-9.4-22.9
		c-0.4-0.9-0.6-1.2-1-1.2c-0.4,0-0.6,0.4-1.1,1.5l-9.9,24.1l2.6,1l2.7-7.1c0.1-0.2,0.2-0.3,0.3-0.3h8.5c0.2,0,0.3,0.1,0.4,0.3
		l3.1,7.9c0.2,0.4-0.1,0.8-0.3,0.9c-0.4,0-0.5,0.1-0.5,0.3c0,0.3,0.5,0.3,1.1,0.3c3,0.1,5.8,0.1,7.2,0.1c1.4,0,1.8-0.1,1.8-0.4
		C382.2,34,382,33.9,381.7,33.9"/>
	<path class="st0" d="M40.3,24.6c0,3.8,0,6.9-0.2,8.5c-0.1,1.2-0.4,1.7-1.2,1.9c-0.4,0.1-0.9,0.1-1.5,0.1c-0.5,0-0.7,0.2-0.7,0.4
		c0,0.3,0.3,0.4,0.8,0.4c1.7,0,4.5-0.1,5.5-0.1c1.1,0,4,0.1,6.7,0.1c0.5,0,0.8-0.1,0.8-0.4c0-0.2-0.2-0.4-0.7-0.4
		c-0.6,0-1.6-0.1-2.1-0.1c-1.2-0.2-1.5-0.8-1.7-1.9c-0.2-1.6-0.2-4.8-0.2-8.6v-6.9c0-6,0-7.1,0.1-8.3c0.1-1.4,0.4-1.9,1.6-2.1
		c0.5-0.1,0.8-0.1,1.2-0.1c0.4,0,0.7-0.1,0.7-0.5c0-0.2-0.3-0.3-0.8-0.3c-1.6,0-4.3,0.1-5.4,0.1c-1.2,0-4-0.1-5.6-0.1
		c-0.7,0-1,0.1-1,0.3c0,0.4,0.2,0.5,0.7,0.5c0.5,0,1,0,1.5,0.2c0.9,0.3,1.3,0.7,1.4,2.1c0,1.2,0,2.4,0,8.3V24.6z"/>
	<path class="st0" d="M55.9,23.4c0,5.7,1.7,8.6,3.8,10.4c3,2.6,7.4,2.7,9.5,2.7c2.7,0,5.9-0.4,8.8-2.8c3.5-2.8,4-7.4,4-11.8v-4.2
		c0-6,0-7.1,0.1-8.3c0.1-1.4,0.4-1.9,1.5-2.1c0.5-0.1,0.8-0.1,1.2-0.1c0.5,0,0.7-0.1,0.7-0.4c0-0.3-0.3-0.4-0.8-0.4
		c-1.6,0-4.4,0.1-4.9,0.1c0,0-2.9-0.1-5-0.1c-0.6,0-0.9,0.1-0.9,0.4c0,0.3,0.2,0.4,0.7,0.4c0.5,0,1.2,0,1.5,0.1
		C77.6,7.6,77.9,8,78,9.3c0,1.2,0.1,2.4,0.1,8.3v4.9c0,4-0.1,7.4-2.4,9.6c-1.7,1.6-3.8,2.1-5.6,2.1c-1.4,0-3.4-0.1-5.3-1.6
		c-2.1-1.6-3.2-3.8-3.2-9.5v-5.5c0-6,0-7.1,0.1-8.3c0.1-1.4,0.4-1.9,1.5-2.1c0.5-0.1,0.8-0.1,1.2-0.1c0.4,0,0.7-0.1,0.7-0.4
		c0-0.3-0.3-0.4-0.9-0.4c-1.5,0-4.3,0.1-5.4,0.1c-1.2,0-4-0.1-6.3-0.1c-0.6,0-0.9,0.1-0.9,0.4c0,0.3,0.2,0.4,0.7,0.4
		c0.6,0,1.3,0,1.6,0.1c1.3,0.4,1.7,0.7,1.8,2.1c0.1,1.2,0,2.4,0,8.3V23.4z"/>
	<path class="st0" d="M111.7,31.6c-2.5,2-5.3,2.7-9.1,2.7c-3.3,0-4.9-0.8-5.5-1.6c-0.3-0.4-0.4-1.8-0.5-2.8c0-0.8-0.1-3.8-0.1-7.9
		V17c0-3.1,0-6.3,0.1-7.7c0-0.5,0.1-0.6,0.5-0.8c0.3-0.2,1.7-0.3,2.6-0.3c3.3,0,7.8,0.4,11.7,3.7c1.9,1.6,3.9,4.8,3.9,9.8
		C115.2,25.9,114.4,29.4,111.7,31.6 M117.3,10.8c-4.6-4.5-11.6-4.5-16.8-4.5c-2.5,0-5.5,0.1-6.8,0.1c-1.2,0-3.8-0.1-6-0.1
		c-0.6,0-0.9,0.1-0.9,0.4s0.3,0.4,0.7,0.4c0.6,0,1.3,0,1.7,0.1c1.3,0.4,1.7,0.8,1.8,2.1c0,1.2,0,2.4,0,8.3v6.9c0,3.6,0,6.7-0.2,8.3
		c-0.2,1.2-0.4,1.9-1.2,2.1c-0.4,0.1-0.9,0.1-1.5,0.1c-0.5,0-0.7,0.2-0.7,0.4c0,0.3,0.3,0.4,0.8,0.4c0.8,0,1.9-0.1,2.9-0.1
		c1,0,1.9,0,2.4,0c1,0,2.6,0.1,4.2,0.2c1.7,0.1,3.5,0.2,5,0.2c7.7,0,12.1-2.8,14-4.6c2.4-2.3,4.6-6,4.6-10.9
		C121.2,16.1,119.4,12.8,117.3,10.8"/>
	<path class="st0" d="M139.2,23.9h-8.1c-0.1,0-0.2-0.1-0.1-0.3l4-9.9c0-0.1,0.1-0.4,0.2-0.4c0.1,0,0.2,0.2,0.2,0.4l3.9,10
		C139.4,23.8,139.4,23.9,139.2,23.9 M153.3,35.1c-0.5,0-1-0.1-1.6-0.1c-0.8-0.1-1.9-0.7-3.6-4.2c-2.7-6-9.6-22-10.6-24.2
		c-0.4-0.9-0.6-1.2-1.2-1.2c-0.4,0-0.7,0.5-1.2,1.6l-10.9,24.7c-0.9,2-1.6,3.2-3.5,3.5c-0.4,0-0.8,0.1-1.2,0.1
		c-0.3,0-0.5,0.2-0.5,0.4c0,0.3,0.2,0.4,0.7,0.4c2.2,0,4.4-0.1,4.8-0.1c1.3,0,3.3,0.1,4.6,0.1c0.4,0,0.7-0.1,0.7-0.4
		c0-0.2-0.1-0.4-0.6-0.4h-0.6c-1.3,0-1.7-0.4-1.7-1.1c0-0.5,0.2-1.4,0.6-2.4l2.2-5.3c0.1-0.2,0.1-0.3,0.4-0.3h9.8
		c0.2,0,0.3,0,0.4,0.3l3.2,7.9c0.2,0.5-0.1,0.8-0.4,0.9c-0.4,0-0.5,0.2-0.5,0.4c0,0.3,0.5,0.3,1.2,0.3c3.5,0.1,6.6,0.1,8,0.1
		c1.6,0,1.8-0.1,1.8-0.4C153.9,35.3,153.7,35.1,153.3,35.1"/>
	<path class="st0" d="M177.3,31.6c-2.5,2-5.3,2.7-9.1,2.7c-3.3,0-4.9-0.8-5.5-1.6c-0.3-0.4-0.4-1.8-0.5-2.8c0-0.8-0.1-3.8-0.1-7.9
		V17c0-3.1,0-6.3,0.1-7.7c0-0.5,0.1-0.6,0.5-0.8c0.3-0.2,1.7-0.3,2.6-0.3c3.3,0,7.8,0.4,11.7,3.7c1.9,1.6,3.9,4.8,3.9,9.8
		C180.8,25.9,180,29.4,177.3,31.6 M182.9,10.8c-4.6-4.5-11.6-4.5-16.8-4.5c-2.5,0-5.5,0.1-6.8,0.1c-1.2,0-3.8-0.1-6-0.1
		c-0.6,0-1,0.1-1,0.4s0.3,0.4,0.7,0.4c0.6,0,1.3,0,1.7,0.1c1.3,0.4,1.7,0.8,1.8,2.1c0,1.2,0,2.4,0,8.3v6.9c0,3.6,0,6.7-0.2,8.3
		c-0.1,1.2-0.4,1.9-1.2,2.1c-0.4,0.1-0.8,0.1-1.5,0.1c-0.5,0-0.7,0.2-0.7,0.4c0,0.3,0.3,0.4,0.8,0.4c0.8,0,1.9-0.1,2.9-0.1
		c1,0,1.9,0,2.4,0c1.1,0,2.6,0.1,4.2,0.2c1.7,0.1,3.5,0.2,5,0.2c7.7,0,12.1-2.8,14-4.6c2.4-2.3,4.6-6,4.6-10.9
		C186.8,16.1,185,12.8,182.9,10.8"/>
	<path class="st0" d="M5.9,31.6C1.2,27.6,0,22.4,0,18c0-3.1,1-8.6,5.5-12.6c3.4-3.1,7.9-4.9,15-4.9c2.9,0,4.7,0.2,6.9,0.5
		c1.8,0.2,3.3,0.6,4.8,0.8c0.5,0,0.7,0.3,0.7,0.6c0,0.4-0.1,0.9-0.2,2.5c-0.1,1.5-0.1,4-0.1,5c0,0.7-0.1,1.1-0.6,1.1
		c-0.4,0-0.5-0.4-0.5-1c0-1.4-0.7-3.1-1.9-4.3C28,3.9,24.3,2.7,20,2.7c-4.1,0-6.8,1-8.9,2.9c-3.5,3.1-4.4,7.5-4.4,12
		c0,11,8.6,16.4,14.9,16.4c4.2,0,6.8-0.5,8.7-2.6c0.8-0.9,1.4-2.2,1.6-3.1c0.1-0.7,0.2-0.9,0.6-0.9c0.3,0,0.4,0.3,0.4,0.7
		c0,0.6-0.6,4.6-1,6.1c-0.2,0.8-0.4,1-1.2,1.3c-1.9,0.7-5.5,1.1-8.5,1.1C15.7,36.6,10.2,35.2,5.9,31.6"/>
</g>
</svg>
